<?xml version="1.0" encoding="utf-8"?>
<!-- Generator: Adobe Illustrator 19.0.0, SVG Export Plug-In . SVG Version: 6.00 Build 0)  -->
<svg version="1.1" id="Capa_1" xmlns="http://www.w3.org/2000/svg" xmlns:xlink="http://www.w3.org/1999/xlink" x="0px" y="0px"
	 viewBox="-796 640.9 1386 888" style="enable-background:new -796 640.9 1386 888;" xml:space="preserve">
<style type="text/css">
	.st0{fill:#4D4D4D;}
	.st1{font-family:'RobotoCondensed-Regular';}
	.st2{font-size:49.6673px;}
	.st3{letter-spacing:-2;}
	.st4{fill:#C1272D;}
	.st5{font-size:285.5898px;}
	.st6{letter-spacing:-14;}
	.st7{fill:none;stroke:#3A4145;stroke-width:10.5819;stroke-miterlimit:10;}
	.st8{fill:#3A4145;}
</style>
<text id="XMLID_243_" transform="matrix(1 0 0 1 -131.1741 1277.4152)"><tspan x="0" y="0" class="st0 st1 st2 st3">Escanea el documento</tspan><tspan x="0" y="59.6" class="st0 st1 st2 st3">por el lado que tiene la foto</tspan></text>
<g id="XMLID_247_">
	<text transform="matrix(1 0 0 1 -457.5325 1208.4866)" class="st4 st1 st5 st6">01</text>
</g>
<polygon id="XMLID_1419_" points="-586,1396 -615,1396 -615,1469 -542,1469 -542,1440 -586,1440 "/>
<polygon id="XMLID_1418_" points="-615,826 -586,826 -586,782 -542,782 -542,753 -615,753 "/>
<polygon id="XMLID_1415_" points="454,1440 410,1440 410,1469 483,1469 483,1396 454,1396 "/>
<polygon id="XMLID_1414_" points="410,753 410,782 454,782 454,826 483,826 483,753 "/>
<g id="XMLID_818_">
	<path id="XMLID_844_" class="st7" d="M258,1182.6H-66.5c-23.3,0-42.3-19-42.3-42.3V978c0-23.3,19-42.3,42.3-42.3H258
		c23.3,0,42.3,19,42.3,42.3v162.3C300.3,1163.5,281.3,1182.6,258,1182.6z"/>
	<g id="XMLID_841_">
		<path id="XMLID_843_" class="st8" d="M-17.6,1047.1c6.1,14.6,17.8,22.5,25.6,22.5c7.7,0,18.4-7.7,24.6-22.1
			c1.5-3.5,2.8-8,3.7-12.3c1-3.5,1.6-7.9,1.6-13.6c0-15-13.4-27.6-29.9-27.6c-16.5,0-29.9,12.6-29.9,27.6c0,3.9,0.2,7.3,0.7,10.1
			C-20.6,1037-19.4,1042.8-17.6,1047.1z"/>
		<path id="XMLID_842_" class="st8" d="M60.9,1089.7c-6-6.4-22.8-4.8-31.1-9.2c-3.7,6.9-3.7,18.3-9.9,18.3c-0.3,0-0.5,0-0.8-0.1
			c-9.2-1.4-4.6-25-11.1-25c-6.5,0-1.8,23.6-11.1,25c-0.3,0-0.6,0.1-0.8,0.1c-6.1,0-6.2-11.4-9.9-18.3c-8.3,4.4-25.1,2.8-31.1,9.2
			c-3.2,3.5-4.9,24.9-4.9,34.5H65.8C65.8,1114.6,64.2,1093.2,60.9,1089.7z"/>
	</g>
	<line id="XMLID_840_" class="st7" x1="112.2" y1="1031.8" x2="258" y2="1031.8"/>
	<line id="XMLID_839_" class="st7" x1="112.2" y1="1066.2" x2="258" y2="1066.2"/>
	<line id="XMLID_822_" class="st7" x1="112.2" y1="1099" x2="258" y2="1099"/>
</g>
</svg>
