<?xml version="1.0" encoding="utf-8"?>
<!-- Generator: Adobe Illustrator 19.0.0, SVG Export Plug-In . SVG Version: 6.00 Build 0)  -->
<svg version="1.1" id="Capa_1" xmlns="http://www.w3.org/2000/svg" xmlns:xlink="http://www.w3.org/1999/xlink" x="0px" y="0px"
	 viewBox="-796 640.9 1386 888" style="enable-background:new -796 640.9 1386 888;" xml:space="preserve">
<style type="text/css">
	.st0{fill:#4D4D4D;}
	.st1{font-family:'RobotoCondensed-Regular';}
	.st2{font-size:49.6673px;}
	.st3{letter-spacing:-2;}
	.st4{fill:#C1272D;}
	.st5{font-size:285.5898px;}
	.st6{letter-spacing:-14;}
	.st7{fill:none;stroke:#3A4145;stroke-width:10.5819;stroke-miterlimit:10;}
</style>
<polygon id="XMLID_1776_" points="-625,1383 -654,1383 -654,1456 -581,1456 -581,1427 -625,1427 "/>
<polygon id="XMLID_1775_" points="-654,813 -625,813 -625,769 -581,769 -581,740 -654,740 "/>
<polygon id="XMLID_1774_" points="415,1427 371,1427 371,1456 444,1456 444,1383 415,1383 "/>
<polygon id="XMLID_1773_" points="371,740 371,769 415,769 415,813 444,813 444,740 "/>
<text id="XMLID_1059_" transform="matrix(1 0 0 1 -170.1741 1264.4152)"><tspan x="0" y="0" class="st0 st1 st2 st3">escanea el documento</tspan><tspan x="0" y="59.6" class="st0 st1 st2 st3">por el lado que tiene la huella</tspan></text>
<g id="XMLID_1051_">
	<text transform="matrix(1 0 0 1 -496.5325 1195.4866)" class="st4 st1 st5 st6">02</text>
</g>
<g id="XMLID_245_">
	<path id="XMLID_541_" class="st7" d="M219,1169.6h-324.5c-23.3,0-42.3-19-42.3-42.3V965c0-23.3,19-42.3,42.3-42.3H219
		c23.3,0,42.3,19,42.3,42.3v162.3C261.3,1150.5,242.3,1169.6,219,1169.6z"/>
	<line id="XMLID_534_" class="st7" x1="73.2" y1="1018.8" x2="219" y2="1018.8"/>
	<line id="XMLID_533_" class="st7" x1="73.2" y1="1053.2" x2="219" y2="1053.2"/>
	<line id="XMLID_516_" class="st7" x1="73.2" y1="1086" x2="219" y2="1086"/>
</g>
<path id="XMLID_1535_" d="M-24.6,1115.5c-24.9,0.2-43.3-20.3-43.2-43.6c0.1-12.1,5.8-19.5,17.5-21.2c11.6-1.7,20.7,3.4,23.1,14.9
	c2.5,11.8,6.8,20.6,19.9,16.2c13.4-4.5,9.4-16.5,6.8-26.1c-4.7-17.4-33.9-40.1-55.7-34.8c-22,5.4-40.8,28.9-39.6,52.4
	c0.4,8.1,2,16.2,3.1,24.2c-1.6,0.3-3.3,0.7-4.9,1c-1.8-9.2-4.9-18.4-5.1-27.6c-0.8-36.8,34-64.4,69.7-55.9
	c19.8,4.7,40.1,29.9,41.2,50.8c0.7,12.5-3.9,21.3-16.7,23.5c-12.4,2.1-20.7-3.8-24.3-15.9c-0.5-1.6,0.2-4.2-0.8-4.9
	c-5.3-3.9-11.5-10.9-16.2-10c-4.5,0.8-10.5,9.8-10.7,15.3c-0.5,16.1,9.5,27.2,22.8,35.2C-33.3,1111.6-28.9,1113.4-24.6,1115.5z"/>
<path id="XMLID_1529_" d="M-11.5,1071.5c-16.2-29.3-31.3-37.5-50.7-27.3c-20.6,10.8-20.3,25.6,1.6,71.9c-18.4-7.4-30-37-22.6-58
	c6.3-18.1,27.2-28.3,47.3-23.1C-18.1,1039.7-7.9,1054.8-11.5,1071.5z"/>
<path id="XMLID_1528_" d="M13.2,1037.2c-40.1-45-79.3-45.6-118.2-1.7c0.7-18.9,22.3-35.3,48.9-37.9
	C-22.3,994.4,6.4,1009.7,13.2,1037.2z"/>
<path id="XMLID_1526_" d="M-87.8,996.6c17.5-21.3,65.3-21.1,81.7,0.2C-33.3,983.8-60.5,983.8-87.8,996.6z"/>
<path id="XMLID_1521_" d="M-47,1067.4c5.2,23.9,19.8,34,44.1,32.1c-9.4,7.9-17.6,8.2-28.8,2C-44.5,1094.6-50.2,1083.5-47,1067.4z"/>
</svg>
