<?xml version="1.0" encoding="utf-8"?>
<!-- Generator: Adobe Illustrator 19.0.0, SVG Export Plug-In . SVG Version: 6.00 Build 0)  -->
<svg version="1.1" id="Capa_1" xmlns="http://www.w3.org/2000/svg" xmlns:xlink="http://www.w3.org/1999/xlink" x="0px" y="0px"
	 viewBox="0 0 632 395.1" enable-background="new 0 0 632 395.1" xml:space="preserve">
<circle id="XMLID_445_" fill="none" stroke="#FFFFFF" stroke-width="12" stroke-miterlimit="10" cx="331.5" cy="199.1" r="186.2"/>
<g id="XMLID_1056_">
	<path id="XMLID_1094_" fill="#FFFFFF" d="M261.8,114.4c-24.4,24.4-24.4,63.9,0,88.3c22.6,22.6,58.3,24.3,82.8,4.9l18.3,18.3
		l10.3-10.4L355,197.2c19.4-24.5,17.8-60.2-4.9-82.8C325.7,90,286.2,90,261.8,114.4z M343.6,196.1c-20.8,20.8-54.5,20.8-75.3,0
		c-20.8-20.8-20.8-54.5,0-75.3c20.8-20.8,54.5-20.8,75.3,0C364.4,141.6,364.4,175.4,343.6,196.1z"/>
	<path id="XMLID_1076_" fill="#FFFFFF" d="M270.6,123.2c-19.5,19.5-19.5,51.2,0,70.6c19.5,19.5,51.2,19.5,70.6,0
		c19.5-19.5,19.5-51.2,0-70.6C321.8,103.7,290.1,103.7,270.6,123.2z M339.2,191.7c-18.3,18.3-48.1,18.3-66.4,0
		c-18.3-18.3-18.3-48.1,0-66.4c18.3-18.3,48.1-18.3,66.4,0C357.5,143.6,357.5,173.4,339.2,191.7z"/>
	<path id="XMLID_238_" fill="#FFFFFF" d="M382.8,210.9l-24.5,24.5c-3.1,3.1-3.1,8,0,11.1c3.1,3.1,8,3.1,11.1,0l24.5-24.5
		c3.1-3.1,3.1-8,0-11.1C390.9,207.8,385.9,207.8,382.8,210.9z"/>
	<path id="XMLID_235_" fill="#FFFFFF" d="M403.1,277.2c5.9,5.9,15.5,5.9,21.5,0c5.9-5.9,5.9-15.5,0-21.5l-29.5-29.5l-21.5,21.5
		L403.1,277.2z"/>
</g>
</svg>
