<?xml version="1.0" encoding="utf-8"?>
<!-- Generator: Adobe Illustrator 19.0.0, SVG Export Plug-In . SVG Version: 6.00 Build 0)  -->
<svg version="1.1" id="Capa_1" xmlns="http://www.w3.org/2000/svg" xmlns:xlink="http://www.w3.org/1999/xlink" x="0px" y="0px"
	 viewBox="0 0 632 395.1" enable-background="new 0 0 632 395.1" xml:space="preserve">
<circle id="XMLID_179_" fill="none" stroke="#FFFFFF" stroke-width="12" stroke-miterlimit="10" cx="317.9" cy="203.6" r="186.2"/>
<g id="XMLID_79_">
	<path id="XMLID_1122_" fill="#FFFFFF" d="M374.7,125.8H265c-17.9,0-32.5,14.6-32.5,32.5v109.7c0,17.9,14.6,32.5,32.5,32.5h109.7
		c17.9,0,32.5-14.6,32.5-32.5V158.2C407.2,140.3,392.6,125.8,374.7,125.8z M397.9,267.9c0,12.8-10.4,23.2-23.2,23.2H265
		c-12.8,0-23.2-10.4-23.2-23.2V158.2c0-12.8,10.4-23.2,23.2-23.2h109.7c12.8,0,23.2,10.4,23.2,23.2V267.9z"/>
	<path id="XMLID_1098_" fill="#FFFFFF" d="M373.3,165.6h-66.7c-2.6,0-4.6,2.1-4.6,4.6c0,2.6,2.1,4.6,4.6,4.6h66.7
		c2.6,0,4.6-2.1,4.6-4.6C378,167.7,375.9,165.6,373.3,165.6z"/>
	<path id="XMLID_1097_" fill="#FFFFFF" d="M373.3,207.7h-66.7c-2.6,0-4.6,2.1-4.6,4.6c0,2.6,2.1,4.6,4.6,4.6h66.7
		c2.6,0,4.6-2.1,4.6-4.6C378,209.8,375.9,207.7,373.3,207.7z"/>
	<path id="XMLID_1096_" fill="#FFFFFF" d="M373.3,249.9h-66.7c-2.6,0-4.6,2.1-4.6,4.6c0,2.6,2.1,4.6,4.6,4.6h66.7
		c2.6,0,4.6-2.1,4.6-4.6C378,252,375.9,249.9,373.3,249.9z"/>
	<path id="XMLID_1095_" fill="#FFFFFF" d="M291.6,171.4c-2.6,0-4.6,2.1-4.6,4.6v2.2h-15.9V166c0-2.6-2.1-4.6-4.6-4.6
		c-2.6,0-4.6,2.1-4.6,4.6v16.8c0,2.6,2.1,4.6,4.6,4.6h25.2c2.6,0,4.6-2.1,4.6-4.6V176C296.2,173.5,294.1,171.4,291.6,171.4z"/>
	<path id="XMLID_871_" fill="#FFFFFF" d="M291.6,195.2h-25.2c-2.6,0-4.6,2.1-4.6,4.6V225c0,2.6,2.1,4.6,4.6,4.6h25.2
		c2.6,0,4.6-2.1,4.6-4.6v-25.2C296.2,197.2,294.1,195.2,291.6,195.2z M286.9,220.3h-15.9v-15.9h15.9V220.3z"/>
	<path id="XMLID_181_" fill="#FFFFFF" d="M291.6,237.3h-25.2c-2.6,0-4.6,2.1-4.6,4.6v25.2c0,2.6,2.1,4.6,4.6,4.6h25.2
		c2.6,0,4.6-2.1,4.6-4.6v-25.2C296.2,239.4,294.1,237.3,291.6,237.3z M286.9,262.5h-15.9v-15.9h15.9V262.5z"/>
	<path id="XMLID_1055_" fill="#FFFFFF" d="M296.5,136.4c-2.4-1-5.1,0.2-6.1,2.5l-8.8,21.3l-4.4-9.9c-1-2.3-3.8-3.4-6.1-2.4
		c-2.3,1-3.4,3.8-2.4,6.1l8.8,19.8c0.7,1.7,2.4,2.8,4.2,2.8c0,0,0,0,0.1,0c1.9,0,3.5-1.2,4.2-2.9l12.9-31.3
		C300,140.1,298.9,137.4,296.5,136.4z"/>
</g>
</svg>
