<?xml version="1.0" encoding="utf-8"?>
<!-- Generator: Adobe Illustrator 19.0.0, SVG Export Plug-In . SVG Version: 6.00 Build 0)  -->
<svg version="1.1" id="Capa_1" xmlns="http://www.w3.org/2000/svg" xmlns:xlink="http://www.w3.org/1999/xlink" x="0px" y="0px"
	 viewBox="0 0 632 395.1" enable-background="new 0 0 632 395.1" xml:space="preserve">
<circle id="XMLID_1467_" fill="none" stroke="#FFFFFF" stroke-width="12" stroke-miterlimit="10" cx="331.6" cy="200.1" r="186.2"/>
<g id="XMLID_79_">
	<path id="XMLID_361_" fill="#FFFFFF" stroke="#FFFFFF" stroke-miterlimit="10" d="M325.8,270.1c-21.4,0-42.7-0.3-64.1,0.1
		c-16.4,0.3-24.7-6.5-24.6-23.5c0.3-31.7,0.3-63.3,0-95c-0.2-17,8.3-22.5,24.5-24c11.2-1,21.7-10.2,32.9-11.2
		c20.8-1.9,42-1.8,62.8,0.1c10.5,1,20.3,10.6,30.7,11c18.5,0.9,27.1,7.2,26.7,26.4c-0.7,30.2-0.7,60.4,0,90.6
		c0.4,19.3-8.7,26.3-27,25.7C367.1,269.6,346.4,270.1,325.8,270.1z M326.1,243.4c23.7-0.1,43.5-19.7,44-43.4
		c0.5-24.6-19.8-45.2-44.5-45.1c-24.6,0.1-44.7,20.9-44,45.6C282.4,224.2,302.4,243.5,326.1,243.4z"/>
	<path id="XMLID_357_" fill="#FFFFFF" stroke="#FFFFFF" stroke-miterlimit="10" d="M326.7,227.2c-18.4-1.8-28.6-10.9-28.4-28.4
		c0.3-17.5,10.4-27.3,27.9-27.1c17.5,0.2,27.2,10.4,27.2,27.8C353.3,217.3,342.3,225.5,326.7,227.2z"/>
</g>
</svg>
