<?xml version="1.0" encoding="utf-8"?>
<!-- Generator: Adobe Illustrator 19.0.0, SVG Export Plug-In . SVG Version: 6.00 Build 0)  -->
<svg version="1.1" id="Capa_1" xmlns="http://www.w3.org/2000/svg" xmlns:xlink="http://www.w3.org/1999/xlink" x="0px" y="0px"
	 viewBox="0 0 382.8 228" enable-background="new 0 0 382.8 228" xml:space="preserve">
<g id="XMLID_783_">
	<g id="XMLID_810_">
		<path id="XMLID_813_" fill="#BE1525" d="M75.5,204.8c-5.7-5.6-10.8-12.4-15-19.8c-8.7-15.5-13.4-33.8-10.5-50.1
			c0.7-3.8,1.7-7.4,3.3-10.9c6.7-15.4,18.8-28.3,25.3-43.7c7-16.8,8.3-36.5,1.7-53.1c-1.2-3-2.6-5.8-4.3-8.5
			c16,12.2,26.7,30.6,29.1,50.2c2.4,19.6-3.5,40.1-16,56c-8.7,11-20.6,20.1-26,32.8c-3.1,7.4-2.3,17.5,0.9,27
			C66.4,192.4,70.6,199.8,75.5,204.8z"/>
		<path id="XMLID_812_" fill="#BE1525" d="M97.2,206.8c-6.4-1.4-12.4-4.3-17.4-8.4c-4.5-3.7-8.2-8.4-10.5-13.7
			c3.1,1.7,6.5,2.9,10,3.5c6.6,1.3,13.6,0.8,20-1.3c9.8-3.4,18-10.6,22.6-19.6c3.8-7.3,5.2-15.6,3.9-23.6
			c-2.4-15.4-13.9-28.5-14.9-44c-0.2-4,0.3-8.1,1.4-11.9c1.2-4,3.2-7.8,5.7-11.1c-3.7,5-2.4,10.7,0,16.2c2.4,5.5,6.7,10.1,10.7,14.8
			c7.4,8.6,14.2,17.9,18.7,28.2c4.5,10.3,6.7,21.8,4.9,32.9c-1.1,6.7-3.8,13.1-7.7,18.8c-3.1,4.5-7,8.5-11.5,11.7
			C122.9,206.5,109.5,209.4,97.2,206.8z"/>
		<path id="XMLID_811_" fill="#BE1525" d="M103.2,156.4c0.7,4.3,1,9-1.3,12.8c-2.2,3.7-6.8,6-11.2,5.7c-4.4-0.3-8.5-3.3-9.9-7.2
			c-1.6-4.3-0.4-11.5,1.6-15.7c5-10.3,14.3-16.4,25.3-20.7c-5.2,4-5.1,7.8-5.8,12.2C101.3,147.8,102.5,152.1,103.2,156.4z"/>
	</g>
	<path id="XMLID_807_" fill="#333333" d="M202.6,183.9h-15.2c-0.9,0-1.6,0.6-1.7,1.5l-2.9,18.7c-0.1,0.9-0.9,1.5-1.7,1.5h-7.8
		c-0.5,0-10.7,0.1-10.7,0.1c-0.3-0.4,9.8-0.5,10.4-9.3l6.4-43.6c0.1-0.9,0.9-1.5,1.7-1.5h27.9c1.1,0,1.9,1,1.7,2l-1,6.6
		c-0.1,0.9-0.9,1.5-1.7,1.5h-17c-0.9,0-1.6,0.6-1.7,1.5l-1.4,9c-0.2,1.1,0.7,2,1.7,2h14.1c1.1,0,1.9,1,1.7,2l-1,6.6
		C204.2,183.3,203.4,183.9,202.6,183.9z"/>
	<path id="XMLID_804_" fill="#333333" d="M235.3,182.5h-14.7c-0.9,0-1.6,0.6-1.7,1.5l-1.5,9.4c-0.2,1.1,0.7,2,1.7,2H236
		c1.1,0,1.9,1,1.7,2l-1,6.6c-0.1,0.9-0.9,1.5-1.7,1.5h-28.8c-1.1,0-1.9-1-1.7-2l7.8-50.8c0.1-0.9,0.9-1.5,1.7-1.5h28.9
		c1.1,0,1.9,1,1.7,2l-1,6.6c-0.1,0.9-0.9,1.5-1.7,1.5h-18c-0.9,0-1.6,0.6-1.7,1.5l-1.2,8c-0.2,1.1,0.7,2,1.7,2h13.7
		c1.1,0,1.9,1,1.7,2l-1,6.2C236.9,181.9,236.2,182.5,235.3,182.5z"/>
	<path id="XMLID_797_" fill="#333333" d="M275.6,205.6h-8.2c-0.8,0-1.4-0.5-1.7-1.2l-8.9-26.3c-0.6-1.7-3.1-1.5-3.4,0.3l-4,25.7
		c-0.1,0.9-0.9,1.5-1.7,1.5H240c-1.1,0-1.9-1-1.7-2l7.8-50.8c0.1-0.9,0.9-1.5,1.7-1.5h8.3c0.8,0,1.4,0.5,1.7,1.2l8.8,26.3
		c0.6,1.7,3.1,1.5,3.4-0.3l3.9-25.7c0.1-0.9,0.9-1.5,1.7-1.5h7.8c1.1,0,1.9,1,1.7,2l-7.9,50.8C277.2,204.9,276.5,205.6,275.6,205.6z
		"/>
	<path id="XMLID_794_" fill="#333333" d="M291.8,205.6H284c-1.1,0-1.9-1-1.7-2l7.9-50.8c0.1-0.9,0.9-1.5,1.7-1.5h7.8
		c1.1,0,1.9,1,1.7,2l-7.8,50.8C293.4,204.9,292.6,205.6,291.8,205.6z"/>
	<path id="XMLID_792_" fill="#BE1525" d="M323.2,165.6l7.6-13.4c0.3-0.5,0.9-0.9,1.5-0.9h9.3c0.7,0,10.1,0,10.1,0s-7.5,0.1-9.3,3.7
		L328,178c-0.3,0.5-0.3,1-0.2,1.5l8.4,23.7c0.4,1.1-0.4,2.3-1.7,2.3h-8.8c-0.8,0-1.5-0.5-1.7-1.3l-3.8-13.1
		c-0.4-1.5-2.4-1.7-3.2-0.4l-7.9,13.8c-0.3,0.5-0.9,0.9-1.5,0.9h-9.4c-1.4,0-2.2-1.5-1.5-2.7l15.4-24.5c0.3-0.4,0.3-1,0.2-1.5
		l-8.1-23.3c-0.4-1.1,0.5-2.3,1.7-2.3h8.7c0.8,0,1.5,0.5,1.7,1.3l3.6,12.7C320.4,166.7,322.4,166.9,323.2,165.6z"/>
	<g id="XMLID_785_">
		<path id="XMLID_791_" fill="#BE1525" d="M188.6,108.6c-1.1,0.1-4.8,1.5-4.8,1.5s1.6,1,3.2,1c1.6,0.1,4.8-1.1,4.8-1.1
			S189.7,108.5,188.6,108.6z"/>
		<path id="XMLID_790_" fill="#BE1525" d="M213.8,101.1l-10.2,0.9c0,0-5.1-3.2-10.1-3.7c-3.6-0.4-30.6,11.6-49.6,11.3
			c-0.9,0,8.6,5.9,7.8,5.8c-0.9-0.1-3.8-0.7-6.1-1.5c-2.7-1-11-7.9-11-7.9c0,1,2.5,4,11.8,11.9c1.4,1.2,11.9,10.1,15.1,23.5
			c1.2,4.9,1.6,16.9-1.9,25c-1.5,3.5-3.7,6.8-6.4,9.5c0,0,0,0,0,0c20.8-19.3,24.4-35.2,36.3-45.9c11.9-10.7,28.3-19,36.7-19.9
			C226.3,110.1,220.8,103.5,213.8,101.1z"/>
		<path id="XMLID_786_" fill="#FFFFFF" d="M187,111.1c-1.6-0.1-3.2-1-3.2-1s3.7-1.4,4.8-1.5c1.1-0.1,3.2,1.4,3.2,1.4
			S188.6,111.2,187,111.1z"/>
	</g>
</g>
</svg>
