<?xml version="1.0" encoding="utf-8"?>
<!-- Generator: Adobe Illustrator 19.0.0, SVG Export Plug-In . SVG Version: 6.00 Build 0)  -->
<svg version="1.1" id="Capa_1" xmlns="http://www.w3.org/2000/svg" xmlns:xlink="http://www.w3.org/1999/xlink" x="0px" y="0px"
	 viewBox="0 0 632 395.1" enable-background="new 0 0 632 395.1" xml:space="preserve">
<rect id="XMLID_178_" x="59.1" y="34.3" fill="none" width="497.6" height="330.6"/>
<path id="XMLID_177_" fill-rule="evenodd" clip-rule="evenodd" fill="#FFFFFF" d="M123.8,145.4c0-61.3,82.7-111,184.6-111
	c102,0,184.7,49.7,184.7,111c0,61.2-82.7,110.9-184.7,110.9C206.5,256.2,123.8,206.5,123.8,145.4"/>
<path id="XMLID_173_" fill="#BE1525" d="M274.9,105.5c8.5-2.4,17.5-3.6,26.5-3.6c37.6,0,67.7,19.5,67.7,43.2
	c0,12.7-9.2,27.2-27.5,40.4c-8.5,2.3-17.6,3.6-26.5,3.6c-37.6,0-67.7-19.6-67.7-43.4C247.5,133.1,256.7,118.6,274.9,105.5
	 M436.6,65.7c34.7,20.2,56.3,48.5,56.3,79.7c0,61.3-82.6,110.9-184.6,110.9c-38.1,0-73.5-6.9-103-18.9c7.4,0.6,53.3,4.2,89.9,2.1
	c47-2.8,161.9-25,161.9-83.7c0-49-90-64.6-124.9-62.7c-23,1.2-41.9,5.7-52,8.7c14.8-9.5,34.6-18.2,59.3-24.5
	C339.5,77.4,401.2,62.7,436.6,65.7 M123.8,145.4c0-61.2,82.6-110.9,184.6-110.9c38.1,0,73.5,6.9,102.9,18.8
	c-7.4-0.5-53.3-4.1-89.8-2c-47,2.7-161.9,25.1-161.9,83.6c0,49.2,90,64.5,124.8,62.6c23.1-1.1,41.9-5.6,52.1-8.6
	c-14.8,9.6-34.7,18.2-59.3,24.5c0,0-61.6,14.6-97.1,11.8C145.3,205.1,123.8,176.8,123.8,145.4"/>
<path id="XMLID_80_" d="M119,294.5c-5-2.2-10.2-3.5-16-3.5c-9.8,0-20.3,4.3-28.2,11.3c-7.7,6.8-12.6,16-14.1,25.5
	c-1.6,10.4,0.5,19.4,7.1,26.3c6.2,6.6,14.8,10.3,24.5,10.3c5.6,0,10.2-1.4,16.4-3.2l3.3-21.7c-4.5,4.6-10.8,7.4-16.7,7.4
	c-11.2,0-17.6-8-15.8-19c1.6-10.8,10.4-19.4,21.4-19.4c6.2,0,11.7,2.7,14.7,7.7L119,294.5z M161.9,290.5c-20,0-40.6,14.8-43.9,35.9
	c-3.5,22.6,10.2,38.5,32.5,38.5c22.3,0,40.8-15.9,44.3-38.5C198.1,305.3,181.9,290.5,161.9,290.5 M159.3,308.1
	c10.8,0,18.3,8.8,16.8,18.4c-1.8,12.1-12,20.8-22.8,20.8c-10.8,0-18.3-8.8-16.5-20.8C138.3,316.8,148.5,308.1,159.3,308.1
	 M223.7,292.8h-18.1l-10.7,69.7h39.7l2.4-15.4h-21.7L223.7,292.8z M239.5,362.6h18l3.6-23.1h10.2c15.7,0,25.7-7.2,28.2-23.7
	c2.4-16-6.8-22.9-21.7-22.9h-27.6L239.5,362.6z M266,307.4h3c7,0,13,0.1,11.6,8.9c-1.3,8.5-7.7,8.5-14.3,8.5h-3L266,307.4z
	 M333.2,350.4l2.7,12.1h19.2l-15.4-69.7h-19.8l-37.3,69.7h19.1l6.7-12.1H333.2z M330.5,336.6h-15l10.9-22.2L330.5,336.6z M389,308.2
	h14.9l2.4-15.3h-47.9l-2.4,15.3h15l-8.4,54.4h18.1L389,308.2z M441.4,334c10.1-1.8,16.7-10.1,18.2-19.7c2.3-14.9-7.1-21.4-20.9-21.4
	h-27l-10.7,69.7h18.1l4.1-26.9l13.1,26.9h22.5L441.4,334z M427.7,306.7h1.8c5.9,0,12.4,1.1,11.2,8.7c-1.2,7.6-8,8.7-13.9,8.7H425
	L427.7,306.7z M490.5,292.8h-18l-10.7,69.7h18.1L490.5,292.8z M534.8,350.4l2.7,12.1h19.2l-15.5-69.7h-19.7l-37.4,69.7h19.1
	l6.7-12.1H534.8z M532.1,336.6h-15l10.8-22.2L532.1,336.6z"/>
</svg>
