<?xml version="1.0" encoding="utf-8"?>
<!-- Generator: Adobe Illustrator 19.0.0, SVG Export Plug-In . SVG Version: 6.00 Build 0)  -->
<svg version="1.1" id="Capa_1" xmlns="http://www.w3.org/2000/svg" xmlns:xlink="http://www.w3.org/1999/xlink" x="0px" y="0px"
	 viewBox="0 0 632 395.1" enable-background="new 0 0 632 395.1" xml:space="preserve">
<g id="XMLID_79_">
	<g id="XMLID_214_">
		<path id="XMLID_246_" fill="#FFFFFF" d="M55,388.9c-11.8-11.7-22.5-25.8-31.3-41.4c-18.2-32.4-28-70.6-21.9-104.6
			c1.4-7.8,3.6-15.5,6.8-22.7c14.1-32.1,39.3-59.1,52.9-91.4c14.7-35,17.4-76.3,3.5-111C62.5,11.7,59.5,5.7,55.9,0
			c33.4,25.5,55.7,64,60.7,104.8c5,40.9-7.3,83.7-33.5,116.9c-18.2,23-43,41.9-54.3,68.6c-6.6,15.5-4.8,36.6,1.8,56.3
			C36.1,363,44.9,378.5,55,388.9z"/>
		<path id="XMLID_223_" fill="#FFFFFF" d="M100.4,393.1c-13.4-2.9-26-9-36.4-17.6c-9.5-7.8-17.1-17.5-21.9-28.5
			c6.5,3.5,13.6,6,20.9,7.4c13.7,2.7,28.4,1.7,41.7-2.8c20.5-7,37.7-22.2,47.3-40.9c7.9-15.2,10.8-32.7,8.2-49.3
			c-4.9-32.1-29.1-59.5-31.1-92c-0.5-8.4,0.5-16.8,3-24.9c2.6-8.3,6.6-16.2,12-23.2c-7.8,10.4-5,22.4,0.1,33.9
			c5.1,11.6,13.9,21.2,22.3,30.8c15.5,18,29.6,37.3,39.1,58.8c9.5,21.5,14.1,45.5,10.1,68.7c-2.4,13.9-7.9,27.4-16.1,39.3
			c-6.5,9.4-14.6,17.7-24,24.4C154.2,392.4,126,398.6,100.4,393.1z"/>
		<path id="XMLID_222_" fill="#FFFFFF" d="M112.9,287.8c1.5,9,2,18.7-2.7,26.7c-4.6,7.8-14.1,12.6-23.3,12
			c-9.2-0.7-17.7-6.8-20.7-15.1c-3.3-9-0.8-24,3.4-32.7c10.4-21.5,29.9-34.2,52.9-43.2c-10.9,8.3-10.7,16.4-12,25.4
			C109,269.8,111.4,278.9,112.9,287.8z"/>
	</g>
	<path id="XMLID_192_" fill="#FFFFFF" d="M320.5,345.3h-31.8c-1.8,0-3.3,1.3-3.6,3.1l-6,39c-0.3,1.8-1.8,3.1-3.6,3.1h-16.3
		c-1.1,0-22.3,0.2-22.3,0.2c-0.7-0.8,20.4-1.1,21.6-19.4l13.3-91.2c0.3-1.8,1.8-3.1,3.6-3.1h58.2c2.2,0,4,2,3.6,4.2l-2.1,13.8
		c-0.3,1.8-1.8,3.1-3.6,3.1H296c-1.8,0-3.3,1.3-3.6,3.1l-2.9,18.8c-0.3,2.2,1.4,4.2,3.6,4.2h29.5c2.2,0,4,2,3.6,4.2l-2.1,13.7
		C323.9,344,322.3,345.3,320.5,345.3z"/>
	<path id="XMLID_90_" fill="#FFFFFF" d="M388.9,342.4h-30.8c-1.8,0-3.3,1.3-3.6,3.1l-3.1,19.7c-0.3,2.2,1.4,4.2,3.6,4.2h35.3
		c2.2,0,4,2,3.6,4.2l-2.1,13.7c-0.3,1.8-1.8,3.1-3.6,3.1H328c-2.2,0-4-2-3.6-4.2l16.3-106.2c0.3-1.8,1.8-3.1,3.6-3.1h60.3
		c2.2,0,4,2,3.6,4.2l-2.1,13.8c-0.3,1.8-1.8,3.1-3.6,3.1h-37.7c-1.8,0-3.3,1.3-3.6,3.1l-2.6,16.6c-0.3,2.2,1.4,4.2,3.6,4.2h28.6
		c2.2,0,4,2,3.6,4.2l-2,13C392.2,341.1,390.7,342.4,388.9,342.4z"/>
	<path id="XMLID_87_" fill="#FFFFFF" d="M473.1,390.5h-17.2c-1.6,0-3-1-3.5-2.5L434,333.1c-1.2-3.6-6.5-3.2-7.1,0.6l-8.3,53.7
		c-0.3,1.8-1.8,3.1-3.6,3.1h-16.3c-2.2,0-4-2-3.6-4.2l16.3-106.2c0.3-1.8,1.8-3.1,3.6-3.1h17.4c1.6,0,3,1,3.5,2.5l18.4,54.9
		c1.2,3.6,6.5,3.2,7.1-0.6l8.3-53.6c0.3-1.8,1.8-3.1,3.6-3.1h16.3c2.2,0,4,2,3.6,4.2l-16.4,106.2
		C476.5,389.2,474.9,390.5,473.1,390.5z"/>
	<path id="XMLID_85_" fill="#FFFFFF" d="M506.8,390.5h-16.3c-2.2,0-4-2-3.6-4.2l16.4-106.2c0.3-1.8,1.8-3.1,3.6-3.1h16.2
		c2.2,0,4,2,3.6,4.2l-16.3,106.2C510.2,389.2,508.6,390.5,506.8,390.5z"/>
	<path id="XMLID_83_" fill="#FFFFFF" d="M572.5,307l15.8-28.1c0.6-1.1,1.9-1.9,3.2-1.9h19.4c1.4,0,21,0.1,21,0.1s-15.7,0.2-19.4,7.7
		l-30,48c-0.6,0.9-0.7,2.1-0.3,3.2l17.4,49.6c0.8,2.4-0.9,4.9-3.4,4.9h-18.3c-1.6,0-3.1-1.1-3.5-2.6l-7.9-27.3
		c-0.9-3.1-5.1-3.6-6.7-0.8l-16.4,28.9c-0.7,1.1-1.9,1.8-3.2,1.8h-19.6c-2.9,0-4.6-3.2-3.1-5.6l32.3-51.2c0.6-0.9,0.7-2.1,0.4-3.1
		l-16.9-48.7c-0.8-2.4,0.9-4.9,3.5-4.9h18.1c1.6,0,3.1,1.1,3.5,2.7l7.5,26.5C566.7,309.3,570.9,309.8,572.5,307z"/>
	<g id="XMLID_80_">
		<path id="XMLID_234_" fill="#FFFFFF" d="M344,172.2l-21.4,2c0,0-10.6-6.6-21.1-7.8c-7.5-0.8-63.8,24.2-103.6,23.5
			c-1.9,0,17.9,12.3,16.2,12.1c-1.9-0.2-7.8-1.5-12.7-3.2c-5.6-2-22.9-16.5-22.9-16.5c0,2,5.3,8.3,24.7,24.9
			c2.8,2.4,24.9,21.1,31.5,49.1c2.4,10.3,3.4,35.4-4,52.2c-3.2,7.4-7.8,14.1-13.3,19.9c0,0,0,0,0,0c43.5-40.2,51.1-73.5,75.9-95.9
			c24.8-22.4,59.2-39.7,76.7-41.5C370,191.1,358.5,177.4,344,172.2z M287.9,193.1c-3.4-0.2-6.6-2.2-6.6-2.2s7.6-2.9,9.9-3.1
			c2.3-0.2,6.7,2.9,6.7,2.9S291.3,193.3,287.9,193.1z"/>
	</g>
</g>
</svg>
