<?xml version="1.0" encoding="utf-8"?>
<!-- Generator: Adobe Illustrator 19.0.0, SVG Export Plug-In . SVG Version: 6.00 Build 0)  -->
<svg version="1.1" id="Capa_1" xmlns="http://www.w3.org/2000/svg" xmlns:xlink="http://www.w3.org/1999/xlink" x="0px" y="0px"
	 viewBox="-796 640.9 1386 738" style="enable-background:new -796 640.9 1386 738;" xml:space="preserve">
<style type="text/css">
	.st0{fill:#CACAF2;}
	.st1{fill:#E9EEFB;}
	.st2{fill:#3B4EAD;}
</style>
<g id="XMLID_333_">
	<path id="XMLID_353_" class="st0" d="M-24.6,945.6c0,0-165.9-50.3-193.4-84.9c9.3,21.2,26.9,62.4,26.9,62.4s-211.5-69-219-102
		c-7.5-33,12,93,12,93s-117-105-135-118.5c-18-13.5,21,100.5,21,100.5l-54-79.5l-36,375c0,0,12,25.5,28.5,27
		c16.5,1.5,577.5,49.5,577.5,49.5s22.5-6,27-31.5c4.5-25.5,30-306,30-306s-70.5-9-127.5-51C-123.6,837.6-24.6,945.6-24.6,945.6z"/>
	<path id="XMLID_332_" class="st1" d="M184.3,1169.3c0,0,148.2-67.5,183.9-181.2c0,0-12.7-23.5-19.1-30.9
		c-18.8-21.6-19.5-40.3-19.5-40.3s-17.8-30.7,23.3-32.7c14-0.7,11.8,41.6,22.2,42.8s49-66.1,48.4-90.1c-0.7-26,24.4-31.4,23.3-8.9
		c-1.1,22.5-10.7,58.2-10.7,58.2s12.7-0.7,27.1-56.3c3.8-14.6,24.3-13.7,14.3,19.8c-6.9,23.4-10.5,51.6-10.5,51.6
		s3.1,29.6,25.5-37.8c5.9-17.6,25.5,15,9.2,50.9c-16.2,35.9-17.2,84.1-66.5,105.6c-27.7,12.1-23.3,68.6-114.3,166.5
		c-43.1,46.4-151.7,71.6-150.3,59.7C175.1,1210.4,184.3,1169.3,184.3,1169.3z"/>
	<g id="XMLID_259_">
		
			<image style="overflow:visible;opacity:0.75;" width="1065" height="774" xlink:href="3A785AE3.png"  transform="matrix(1 0 0 1 -788 639)">
		</image>
		<g>
			<g>
				<path id="XMLID_47_" class="st1" d="M133.7,776.1l-724.3-83.3c-52.5-6-100.3,32-106.3,84.4l-45.6,396.4
					c-6,52.5,32,100.3,84.4,106.3l724.3,83.3c52.5,6,100.3-32,106.3-84.4l45.6-396.4C224.2,830,186.2,782.1,133.7,776.1z
					 M30.9,1236.6c-4.5,25.5-27,31.5-27,31.5s-561-48-577.5-49.5c-16.5-1.5-28.5-27-28.5-27l36-375l54,79.5c0,0-39-114-21-100.5
					c18,13.5,135,118.5,135,118.5s-19.5-126-12-93c7.5,33,219,102,219,102s-17.6-41.2-26.9-62.4c-1.4-1.7-2.4-3.4-3.1-5.1
					c-4.9-12.6-2.3-7,3.1,5.1c27.6,34.6,193.4,84.9,193.4,84.9s-99-108-42-66c57,42,127.5,51,127.5,51S35.4,1211.1,30.9,1236.6z"/>
				<path id="XMLID_46_" class="st0" d="M-221.1,855.6c0.6,1.7,1.7,3.4,3.1,5.1C-223.4,848.6-226,843-221.1,855.6z"/>
			</g>
		</g>
	</g>
	<circle id="XMLID_340_" class="st2" cx="-419.2" cy="1028" r="27"/>
	<circle id="XMLID_344_" class="st2" cx="-99.7" cy="1050.5" r="27"/>
	<path id="XMLID_346_" class="st2" d="M-312.7,1085l117,12c0,0-13.5,48-49.5,43.5S-317.2,1130-312.7,1085z"/>
</g>
</svg>
